<?xml version="1.0" encoding="UTF-8" standalone="no"?>
<!DOCTYPE svg PUBLIC "-//W3C//DTD SVG 1.1//EN"
"http://www.w3.org/Graphics/SVG/1.1/DTD/svg11.dtd">
<svg viewBox="0 0 935 1210" version="1.1" xmlns="http://www.w3.org/2000/svg" xmlns:xlink="http://www.w3.org/1999/xlink">
<defs>
<style type="text/css"><![CDATA[
.g1_1{
}
]]></style>
</defs>
<path fill-rule="evenodd" d="M53.9,153.7l826.3,0l0,-1.7L53.9,152l0,1.7Z" class="g1_1" />
<path fill-rule="evenodd" d="M53.9,194.2l501.9,0l0,-0.8l-501.9,0l0,0.8Z" class="g1_1" />
<path fill-rule="evenodd" d="M53.9,237.1l826.3,0l0,-1.7l-826.3,0l0,1.7Z" class="g1_1" />
<path fill-rule="evenodd" d="M55,256.7l153.7,0l0,-0.7L55,256l0,0.7Z" class="g1_1" />
<path fill-rule="evenodd" d="M55,298.3l92.4,0l0,-0.7l-92.4,0l0,0.7Z" class="g1_1" />
<path fill-rule="evenodd" d="M55,319.2l116.3,0l0,-0.7L55,318.5l0,0.7Z" class="g1_1" />
<path fill-rule="evenodd" d="M53.9,362.1l826.3,0l0,-1.6l-826.3,0l0,1.6Z" class="g1_1" />
<path fill-rule="evenodd" d="M53.9,381.7l120.9,0l0,-0.7L53.9,381l0,0.7Z" class="g1_1" />
<path fill-rule="evenodd" d="M53.9,402.7l65.5,0l0,-0.8l-65.5,0l0,0.8Z" class="g1_1" />
<path fill-rule="evenodd" d="M53.9,423.4l169.4,0l0,-0.7l-169.4,0l0,0.7Z" class="g1_1" />
<path fill-rule="evenodd" d="M53.9,444.3l153.1,0l0,-0.7l-153.1,0l0,0.7Z" class="g1_1" />
<path fill-rule="evenodd" d="M53.9,465l66.2,0l0,-0.7l-66.2,0l0,0.7Z" class="g1_1" />
<path fill-rule="evenodd" d="M55,508.1l825.2,0l0,-1.7L55,506.4l0,1.7Z" class="g1_1" />
<path fill-rule="evenodd" d="M53.9,757.1l826.3,0l0,-1.7l-826.3,0l0,1.7Z" class="g1_1" />
<path fill-rule="evenodd" d="M53.9,964.9l826.3,0l0,-1.7l-826.3,0l0,1.7Z" class="g1_1" />
</svg>